<svg id="Layer_1" xmlns="http://www.w3.org/2000/svg" viewBox="0 0 175 200">
    <style>.st0{fill:#FFFFFF;}</style>
    <path class="st0"
          d="M 69.4 83.9 C 63.7 83.9 59.2 88.9 59.2 95 C 59.2 101.1 63.8 106.1 69.4 106.1 C 75.1 106.1 79.6 101.1 79.6 95 C 79.7 88.9 75.1 83.9 69.4 83.9 Z M 105.9 83.9 C 100.2 83.9 95.7 88.9 95.7 95 C 95.7 101.1 100.3 106.1 105.9 106.1 C 111.6 106.1 116.1 101.1 116.1 95 C 116.1 88.9 111.6 83.9 105.9 83.9 Z"/>
    <path class="st0"
          d="M 154.5 0 L 20.5 0 C 9.2 0 0 9.2 0 20.6 L 0 155.8 C 0 167.2 9.2 176.4 20.5 176.4 L 133.9 176.4 L 128.6 157.9 L 141.4 169.8 L 153.5 181 L 175 200 L 175 20.6 C 175 9.2 165.8 0 154.5 0 Z M 115.9 130.6 C 115.9 130.6 112.3 126.3 109.3 122.5 C 122.4 118.8 127.4 110.6 127.4 110.6 C 123.3 113.3 119.4 115.2 115.9 116.5 C 110.9 118.6 106.1 120 101.4 120.8 C 91.8 122.6 83 122.1 75.5 120.7 C 69.8 119.6 64.9 118 60.8 116.4 C 58.5 115.5 56 114.4 53.5 113 C 53.2 112.8 52.9 112.7 52.6 112.5 C 52.4 112.4 52.3 112.3 52.2 112.2 C 50.4 111.2 49.4 110.5 49.4 110.5 C 49.4 110.5 54.2 118.5 66.9 122.3 C 63.9 126.1 60.2 130.6 60.2 130.6 C 38.1 129.9 29.7 115.4 29.7 115.4 C 29.7 83.2 44.1 57.1 44.1 57.1 C 58.5 46.3 72.2 46.6 72.2 46.6 L 73.2 47.8 C 55.2 53 46.9 60.9 46.9 60.9 C 46.9 60.9 49.1 59.7 52.8 58 C 63.5 53.3 72 52 75.5 51.7 C 76.1 51.6 76.6 51.5 77.2 51.5 C 83.3 50.7 90.2 50.5 97.4 51.3 C 106.9 52.4 117.1 55.2 127.5 60.9 C 127.5 60.9 119.6 53.4 102.6 48.2 L 104 46.6 C 104 46.6 117.7 46.3 132.1 57.1 C 132.1 57.1 146.5 83.2 146.5 115.4 C 146.5 115.4 138 129.9 115.9 130.6 Z"/>
</svg>