<?xml version="1.0" encoding="UTF-8"?>
<svg width="233px" height="233px" viewBox="0 0 233 233" version="1.1" xmlns="http://www.w3.org/2000/svg" xmlns:xlink="http://www.w3.org/1999/xlink">
    <!-- Generator: Sketch 44.1 (41455) - http://www.bohemiancoding.com/sketch -->
    <title>Untitled</title>
    <desc>Created with Sketch.</desc>
    <defs>
        <linearGradient x1="50%" y1="0%" x2="50%" y2="100%" id="linearGradient-1">
            <stop stop-color="#111D2E" offset="0%"></stop>
            <stop stop-color="#051839" offset="21.248%"></stop>
            <stop stop-color="#0A1B48" offset="40.695%"></stop>
            <stop stop-color="#132E62" offset="58.11%"></stop>
            <stop stop-color="#144B7E" offset="73.76%"></stop>
            <stop stop-color="#136497" offset="87.279%"></stop>
            <stop stop-color="#1387B8" offset="100%"></stop>
        </linearGradient>
    </defs>
    <g id="Page-1" stroke="none" stroke-width="1" fill="none" fill-rule="evenodd">
        <g id="Steam_icon_logo" fill-rule="nonzero">
            <path d="M4.8911,150.01 C19.2841,198.02 63.8071,233 116.5011,233 C180.8411,233 233.0011,180.84 233.0011,116.5 C233.0011,52.159 180.8411,0 116.5011,0 C54.7601,0 4.2411,48.029 0.2511,108.76 C7.7902,121.42 10.7321,129.25 4.8922,150.01 L4.8911,150.01 Z" id="Shape" fill="url(#linearGradient-1)"></path>
            <path d="M110.5,87.322 C110.5,87.518 110.5,87.714 110.51,87.898 L82.002,129.31 C77.384,129.1 72.75,129.91 68.356,131.72 C66.419,132.51 64.604,133.48 62.901,134.6 L0.302,108.83 C0.30249,108.83 -1.1465,132.66 4.89,150.42 L49.144,168.68 C51.366,178.61 58.178,187.32 68.228,191.51 C84.671,198.38 103.63,190.55 110.47,174.1 C112.25,169.8 113.08,165.29 112.96,160.79 L153.75,131.64 C154.08,131.65 154.42,131.66 154.75,131.66 C179.16,131.66 199,111.76 199,87.322 C199,62.882 179.16,43 154.75,43 C130.35,43 110.5,62.882 110.5,87.322 Z M103.66,171.24 C98.366,183.95 83.76,189.98 71.064,184.69 C65.207,182.25 60.785,177.78 58.234,172.45 L72.639,178.42 C82.002,182.32 92.744,177.88 96.636,168.52 C100.54,159.15 96.111,148.39 86.753,144.49 L71.862,138.32 C77.608,136.14 84.14,136.06 90.243,138.6 C96.396,141.16 101.17,145.98 103.7,152.14 C106.23,158.3 106.22,165.1 103.66,171.24 L103.66,171.24 Z M154.75,116.86 C138.5,116.86 125.27,103.61 125.27,87.322 C125.27,71.047 138.5,57.793 154.75,57.793 C171.01,57.793 184.24,71.047 184.24,87.322 C184.24,103.61 171.01,116.86 154.75,116.86 L154.75,116.86 Z M132.66,87.277 C132.66,75.024 142.58,65.086 154.8,65.086 C167.03,65.086 176.95,75.024 176.95,87.277 C176.95,99.531 167.03,109.46 154.8,109.46 C142.58,109.46 132.66,99.531 132.66,87.277 L132.66,87.277 Z" id="Shape" fill="#FFFFFF"></path>
        </g>
    </g>
</svg>