<?xml version="1.0" encoding="UTF-8"?>
<svg width="415px" height="415px" viewBox="0 0 415 415" version="1.1" xmlns="http://www.w3.org/2000/svg" xmlns:xlink="http://www.w3.org/1999/xlink">
    <!-- Generator: Sketch 44.1 (41455) - http://www.bohemiancoding.com/sketch -->
    <title>Untitled 3</title>
    <desc>Created with Sketch.</desc>
    <defs>
        <polygon id="path-1" points="0 414.94 0 0.041 414.959 0.041 414.959 414.94"></polygon>
    </defs>
    <g id="Page-1" stroke="none" stroke-width="1" fill="none" fill-rule="evenodd">
        <g id="Mezhdunarodny_logotip_VK_2">
            <g id="Group-3">
                <mask id="mask-2" fill="white">
                    <use xlink:href="#path-1"></use>
                </mask>
                <g id="Clip-2"></g>
                <path d="M63.942,0.041 L351.017,0.041 C386.33,0.041 414.959,28.669 414.959,63.983 L414.959,351.058 C414.959,386.371 386.33,415 351.017,415 L63.942,415 C28.628,415 0,386.371 0,351.058 L0,63.983 C0,28.669 28.628,0.041 63.942,0.041" id="Fill-1" fill="#4D6D8F" mask="url(#mask-2)"></path>
            </g>
            <path d="M301.475,210.977 C301.475,210.977 337.331,160.399 340.894,143.777 C342.081,137.841 339.469,134.515 333.294,134.515 C333.294,134.515 312.636,134.515 302.188,134.515 C295.064,134.515 292.452,137.602 290.315,142.114 C290.315,142.114 273.497,177.949 253.034,200.53 C246.465,207.83 243.125,210.027 239.499,210.027 C236.574,210.027 235.225,207.589 235.225,201.004 L235.225,143.302 C235.225,135.229 234.275,132.854 227.627,132.854 L177.761,132.854 C173.961,132.854 171.586,135.063 171.586,138.077 C171.586,145.68 183.222,147.397 183.222,167.997 L183.222,210.502 C183.222,219.051 182.747,222.375 178.71,222.375 C168.025,222.375 142.617,185.57 128.37,143.777 C125.52,135.229 122.433,132.854 114.359,132.854 L83.253,132.854 C78.741,132.854 75.416,135.94 75.416,140.451 C75.416,148.762 85.152,187.231 123.383,238.76 C149.028,273.428 182.747,292.187 213.141,292.187 C231.663,292.187 236.175,289.101 236.175,281.264 L236.175,254.669 C236.175,248.02 238.787,245.171 242.586,245.171 C246.86,245.171 254.404,246.544 272.031,263.93 C292.927,283.877 294.352,292.187 305.751,292.187 L340.656,292.187 C344.218,292.187 347.542,290.525 347.542,284.589 C347.542,276.752 337.331,262.743 321.659,246.12 C315.248,237.572 304.8,228.312 301.475,224.038 C296.727,219.051 298.151,216.2 301.475,210.977" id="Fill-4" fill="#FFFFFF"></path>
        </g>
    </g>
</svg>