<?xml version="1.0" standalone="no"?>
<!DOCTYPE svg PUBLIC "-//W3C//DTD SVG 20010904//EN"
 "http://www.w3.org/TR/2001/REC-SVG-20010904/DTD/svg10.dtd">
<svg version="1.0" xmlns="http://www.w3.org/2000/svg"
 width="700.000000pt" height="700.000000pt" viewBox="0 0 700.000000 700.000000"
 preserveAspectRatio="xMidYMid meet">
<metadata>
Created by potrace 1.11, written by Peter Selinger 2001-2013
</metadata>
<g transform="translate(0.000000,700.000000) scale(0.100000,-0.100000)"
fill="#000000" stroke="none">
<path d="M718 6984 c-340 -61 -615 -325 -695 -664 -17 -71 -18 -229 -18 -2820
0 -2591 1 -2749 18 -2820 75 -317 319 -568 638 -653 l84 -22 2755 0 2755 0 84
22 c319 85 563 336 638 653 17 71 18 229 18 2820 0 2591 -1 2749 -18 2820 -74
315 -313 562 -633 652 l-79 23 -2735 2 c-2300 1 -2747 -1 -2812 -13z m2929
-869 c421 -34 839 -329 1033 -730 47 -97 82 -201 107 -315 25 -120 25 -401 0
-520 -65 -302 -234 -577 -467 -761 -488 -385 -1152 -385 -1640 0 -233 184
-402 459 -467 761 -25 119 -25 400 0 520 55 258 166 467 344 651 185 191 391
309 647 369 95 23 253 39 326 34 25 -2 77 -6 117 -9z m153 -3286 c593 -53
1240 -234 1660 -464 367 -201 577 -422 646 -680 16 -62 18 -112 19 -440 l0
-370 -2625 0 -2625 0 0 370 c1 328 3 378 19 440 69 258 279 479 646 680 414
226 1065 410 1645 464 132 12 482 13 615 0z"/>
</g>
</svg>
